<svg xmlns="http://www.w3.org/2000/svg" xmlns:xlink="http://www.w3.org/1999/xlink" width="500" zoomAndPan="magnify" viewBox="0 0 375 374.999991" height="500" preserveAspectRatio="xMidYMid meet" version="1.0"><defs><g/><clipPath id="da5be2a327"><path d="M 186 58 L 314 58 L 314 296.953125 L 186 296.953125 Z M 186 58 " clip-rule="nonzero"/></clipPath><clipPath id="33ee65e24f"><path d="M 61 44.953125 L 189 44.953125 L 189 284 L 61 284 Z M 61 44.953125 " clip-rule="nonzero"/></clipPath><clipPath id="1147eed021"><path d="M 153.542969 87.25 L 221.542969 87.25 L 221.542969 177.761719 L 153.542969 177.761719 Z M 153.542969 87.25 " clip-rule="nonzero"/></clipPath><clipPath id="615bf44297"><path d="M 139.542969 110 L 235.542969 110 L 235.542969 137 L 139.542969 137 Z M 139.542969 110 " clip-rule="nonzero"/></clipPath><clipPath id="7b806a5111"><path d="M 139.542969 124 L 235.542969 124 L 235.542969 137 L 139.542969 137 Z M 139.542969 124 " clip-rule="nonzero"/></clipPath><clipPath id="7291c464c2"><path d="M 198 87.113281 L 222 87.113281 L 222 111 L 198 111 Z M 198 87.113281 " clip-rule="nonzero"/></clipPath></defs><path fill="#ff914d" d="M 297.273438 170.972656 C 297.273438 172.75 297.230469 174.527344 297.144531 176.304688 C 297.054688 178.082031 296.925781 179.855469 296.75 181.625 C 296.578125 183.394531 296.359375 185.160156 296.097656 186.917969 C 295.835938 188.675781 295.53125 190.429688 295.1875 192.171875 C 294.839844 193.917969 294.449219 195.652344 294.019531 197.375 C 293.585938 199.101562 293.113281 200.8125 292.59375 202.515625 C 292.078125 204.21875 291.519531 205.90625 290.921875 207.582031 C 290.324219 209.253906 289.683594 210.914062 289.003906 212.554688 C 288.320312 214.199219 287.601562 215.824219 286.839844 217.433594 C 286.082031 219.039062 285.28125 220.628906 284.445312 222.195312 C 283.605469 223.765625 282.730469 225.3125 281.816406 226.835938 C 280.902344 228.363281 279.949219 229.863281 278.960938 231.34375 C 277.972656 232.820312 276.949219 234.273438 275.890625 235.703125 C 274.832031 237.132812 273.738281 238.53125 272.609375 239.90625 C 271.480469 241.28125 270.320312 242.628906 269.125 243.945312 C 267.929688 245.261719 266.707031 246.550781 265.449219 247.808594 C 264.191406 249.066406 262.902344 250.292969 261.585938 251.484375 C 260.269531 252.679688 258.921875 253.839844 257.546875 254.96875 C 256.171875 256.097656 254.769531 257.191406 253.34375 258.25 C 251.914062 259.308594 250.460938 260.335938 248.980469 261.320312 C 247.503906 262.308594 246 263.261719 244.476562 264.175781 C 242.949219 265.089844 241.402344 265.964844 239.835938 266.804688 C 238.265625 267.640625 236.679688 268.441406 235.070312 269.203125 C 233.464844 269.960938 231.839844 270.683594 230.195312 271.363281 C 228.554688 272.042969 226.894531 272.683594 225.21875 273.28125 C 223.546875 273.882812 221.855469 274.441406 220.15625 274.957031 C 218.453125 275.472656 216.742188 275.945312 215.015625 276.378906 C 213.289062 276.808594 211.554688 277.199219 209.8125 277.546875 C 208.066406 277.894531 206.316406 278.199219 204.558594 278.457031 C 202.796875 278.71875 201.035156 278.9375 199.261719 279.113281 C 197.492188 279.285156 195.722656 279.417969 193.945312 279.503906 C 192.167969 279.589844 190.390625 279.632812 188.613281 279.632812 C 186.835938 279.632812 185.058594 279.589844 183.28125 279.503906 C 181.503906 279.417969 179.730469 279.285156 177.960938 279.113281 C 176.191406 278.9375 174.429688 278.71875 172.667969 278.457031 C 170.910156 278.199219 169.160156 277.894531 167.414062 277.546875 C 165.671875 277.199219 163.933594 276.808594 162.210938 276.378906 C 160.484375 275.945312 158.773438 275.472656 157.070312 274.957031 C 155.367188 274.441406 153.679688 273.882812 152.007812 273.28125 C 150.332031 272.683594 148.671875 272.042969 147.03125 271.363281 C 145.386719 270.683594 143.761719 269.960938 142.152344 269.203125 C 140.546875 268.441406 138.957031 267.640625 137.390625 266.804688 C 135.820312 265.964844 134.273438 265.089844 132.75 264.175781 C 131.222656 263.261719 129.722656 262.308594 128.242188 261.320312 C 126.765625 260.335938 125.3125 259.308594 123.882812 258.25 C 122.457031 257.191406 121.054688 256.097656 119.679688 254.96875 C 118.304688 253.839844 116.957031 252.679688 115.640625 251.484375 C 114.324219 250.292969 113.035156 249.066406 111.777344 247.808594 C 110.519531 246.550781 109.292969 245.261719 108.101562 243.945312 C 106.90625 242.628906 105.746094 241.28125 104.617188 239.90625 C 103.488281 238.53125 102.394531 237.132812 101.335938 235.703125 C 100.277344 234.273438 99.253906 232.820312 98.265625 231.34375 C 97.277344 229.863281 96.324219 228.363281 95.410156 226.835938 C 94.496094 225.3125 93.621094 223.765625 92.78125 222.195312 C 91.945312 220.628906 91.144531 219.039062 90.382812 217.433594 C 89.625 215.824219 88.902344 214.199219 88.222656 212.554688 C 87.542969 210.914062 86.902344 209.253906 86.304688 207.582031 C 85.703125 205.90625 85.148438 204.21875 84.628906 202.515625 C 84.113281 200.8125 83.640625 199.101562 83.207031 197.375 C 82.777344 195.652344 82.386719 193.917969 82.039062 192.171875 C 81.691406 190.429688 81.390625 188.675781 81.128906 186.917969 C 80.867188 185.160156 80.648438 183.394531 80.476562 181.625 C 80.300781 179.855469 80.167969 178.082031 80.082031 176.304688 C 79.996094 174.527344 79.953125 172.75 79.953125 170.972656 C 79.953125 169.195312 79.996094 167.417969 80.082031 165.640625 C 80.167969 163.867188 80.300781 162.09375 80.476562 160.324219 C 80.648438 158.554688 80.867188 156.789062 81.128906 155.03125 C 81.390625 153.269531 81.691406 151.519531 82.039062 149.773438 C 82.386719 148.03125 82.777344 146.296875 83.207031 144.570312 C 83.640625 142.847656 84.113281 141.132812 84.628906 139.429688 C 85.148438 137.730469 85.703125 136.039062 86.304688 134.367188 C 86.902344 132.691406 87.542969 131.035156 88.222656 129.390625 C 88.902344 127.746094 89.625 126.121094 90.382812 124.515625 C 91.144531 122.90625 91.945312 121.320312 92.78125 119.75 C 93.621094 118.183594 94.496094 116.636719 95.410156 115.109375 C 96.324219 113.585938 97.277344 112.082031 98.265625 110.605469 C 99.253906 109.125 100.277344 107.671875 101.335938 106.242188 C 102.394531 104.816406 103.488281 103.414062 104.617188 102.039062 C 105.746094 100.664062 106.90625 99.320312 108.101562 98 C 109.292969 96.683594 110.519531 95.394531 111.777344 94.136719 C 113.035156 92.882812 114.324219 91.65625 115.640625 90.460938 C 116.957031 89.265625 118.304688 88.105469 119.679688 86.976562 C 121.054688 85.847656 122.457031 84.753906 123.882812 83.695312 C 125.3125 82.636719 126.765625 81.613281 128.242188 80.625 C 129.722656 79.636719 131.222656 78.6875 132.75 77.773438 C 134.273438 76.855469 135.820312 75.980469 137.390625 75.144531 C 138.957031 74.304688 140.546875 73.503906 142.152344 72.746094 C 143.761719 71.984375 145.386719 71.265625 147.03125 70.582031 C 148.671875 69.902344 150.332031 69.261719 152.007812 68.664062 C 153.679688 68.066406 155.367188 67.507812 157.070312 66.992188 C 158.773438 66.476562 160.484375 66 162.210938 65.570312 C 163.933594 65.136719 165.671875 64.746094 167.414062 64.398438 C 169.160156 64.054688 170.910156 63.75 172.667969 63.488281 C 174.429688 63.226562 176.191406 63.011719 177.960938 62.835938 C 179.730469 62.660156 181.503906 62.53125 183.28125 62.441406 C 185.058594 62.355469 186.835938 62.3125 188.613281 62.3125 C 190.390625 62.3125 192.167969 62.355469 193.945312 62.441406 C 195.722656 62.53125 197.492188 62.660156 199.261719 62.835938 C 201.035156 63.011719 202.796875 63.226562 204.558594 63.488281 C 206.316406 63.75 208.066406 64.054688 209.8125 64.398438 C 211.554688 64.746094 213.289062 65.136719 215.015625 65.570312 C 216.742188 66 218.453125 66.476562 220.15625 66.992188 C 221.855469 67.507812 223.546875 68.066406 225.21875 68.664062 C 226.894531 69.261719 228.554688 69.902344 230.195312 70.582031 C 231.839844 71.265625 233.464844 71.984375 235.070312 72.746094 C 236.679688 73.503906 238.265625 74.304688 239.835938 75.144531 C 241.402344 75.980469 242.949219 76.855469 244.476562 77.773438 C 246 78.6875 247.503906 79.636719 248.980469 80.625 C 250.460938 81.613281 251.914062 82.636719 253.34375 83.695312 C 254.769531 84.753906 256.171875 85.847656 257.546875 86.976562 C 258.921875 88.105469 260.269531 89.265625 261.585938 90.460938 C 262.902344 91.65625 264.191406 92.882812 265.449219 94.136719 C 266.707031 95.394531 267.929688 96.683594 269.125 98 C 270.320312 99.320312 271.480469 100.664062 272.609375 102.039062 C 273.738281 103.414062 274.832031 104.816406 275.890625 106.242188 C 276.949219 107.671875 277.972656 109.125 278.960938 110.605469 C 279.949219 112.082031 280.902344 113.585938 281.816406 115.109375 C 282.730469 116.636719 283.605469 118.183594 284.445312 119.75 C 285.28125 121.320312 286.082031 122.90625 286.839844 124.515625 C 287.601562 126.121094 288.320312 127.746094 289.003906 129.390625 C 289.683594 131.035156 290.324219 132.691406 290.921875 134.367188 C 291.519531 136.039062 292.078125 137.730469 292.59375 139.429688 C 293.113281 141.132812 293.585938 142.847656 294.019531 144.570312 C 294.449219 146.296875 294.839844 148.03125 295.1875 149.773438 C 295.53125 151.519531 295.835938 153.269531 296.097656 155.03125 C 296.359375 156.789062 296.578125 158.554688 296.75 160.324219 C 296.925781 162.09375 297.054688 163.867188 297.144531 165.640625 C 297.230469 167.417969 297.273438 169.195312 297.273438 170.972656 Z M 297.273438 170.972656 " fill-opacity="1" fill-rule="nonzero"/><g clip-path="url(#da5be2a327)"><path fill="#8c52ff" d="M 192.300781 66.570312 C 237.890625 66.722656 279.632812 96.894531 295.152344 139.574219 C 310.957031 183.046875 298.097656 233.613281 262.308594 263.269531 C 242.71875 279.503906 218.628906 287.996094 193.316406 288.082031 C 190.808594 288.082031 187.214844 290.023438 186.945312 292.78125 C 186.648438 295.804688 190 296.617188 192.300781 296.605469 C 242.203125 296.433594 289.054688 264.738281 306.351562 217.660156 C 307.414062 214.800781 308.363281 211.910156 309.203125 208.976562 C 310.039062 206.046875 310.761719 203.089844 311.371094 200.101562 C 311.980469 197.117188 312.472656 194.109375 312.851562 191.085938 C 313.226562 188.0625 313.484375 185.027344 313.625 181.984375 C 313.765625 178.9375 313.789062 175.894531 313.691406 172.847656 C 313.597656 169.800781 313.382812 166.761719 313.054688 163.730469 C 312.722656 160.703125 312.273438 157.691406 311.710938 154.695312 C 311.144531 151.699219 310.464844 148.730469 309.671875 145.789062 C 308.875 142.847656 307.96875 139.9375 306.949219 137.066406 C 305.925781 134.195312 304.796875 131.367188 303.558594 128.582031 C 302.316406 125.796875 300.972656 123.066406 299.519531 120.386719 C 298.070312 117.707031 296.515625 115.085938 294.863281 112.527344 C 293.207031 109.964844 291.457031 107.472656 289.609375 105.050781 C 287.761719 102.625 285.820312 100.277344 283.792969 98.003906 C 281.761719 95.730469 279.648438 93.539062 277.445312 91.429688 C 275.246094 89.320312 272.96875 87.300781 270.613281 85.367188 C 248.921875 67.382812 221.382812 58.144531 193.316406 58.046875 C 190.808594 58.046875 187.214844 60 186.945312 62.742188 C 186.644531 65.78125 190 66.558594 192.300781 66.570312 Z M 192.300781 66.570312 " fill-opacity="1" fill-rule="nonzero"/></g><g clip-path="url(#33ee65e24f)"><path fill="#8c52ff" d="M 182.640625 275.023438 C 137.054688 274.867188 95.3125 244.695312 79.792969 202.019531 C 63.988281 158.546875 76.847656 108.007812 112.636719 78.328125 C 132.222656 62.09375 156.3125 53.601562 181.625 53.515625 C 184.132812 53.515625 187.726562 51.574219 187.996094 48.820312 C 188.292969 45.792969 184.941406 44.984375 182.640625 44.996094 C 132.738281 45.160156 85.871094 76.855469 68.59375 123.933594 C 67.53125 126.792969 66.578125 129.683594 65.742188 132.613281 C 64.902344 135.546875 64.179688 138.503906 63.570312 141.488281 C 62.960938 144.476562 62.46875 147.480469 62.09375 150.507812 C 61.714844 153.53125 61.457031 156.566406 61.316406 159.609375 C 61.175781 162.65625 61.15625 165.699219 61.25 168.746094 C 61.34375 171.792969 61.558594 174.832031 61.890625 177.859375 C 62.222656 180.890625 62.667969 183.902344 63.234375 186.898438 C 63.796875 189.894531 64.476562 192.863281 65.273438 195.804688 C 66.066406 198.746094 66.976562 201.652344 67.996094 204.527344 C 69.015625 207.398438 70.144531 210.226562 71.386719 213.011719 C 72.625 215.796875 73.96875 218.527344 75.421875 221.207031 C 76.871094 223.886719 78.425781 226.507812 80.082031 229.066406 C 81.734375 231.625 83.488281 234.117188 85.335938 236.542969 C 87.183594 238.964844 89.121094 241.316406 91.152344 243.589844 C 93.179688 245.863281 95.296875 248.054688 97.496094 250.164062 C 99.695312 252.273438 101.972656 254.292969 104.332031 256.226562 C 126.019531 274.210938 153.5625 283.449219 181.625 283.542969 C 184.132812 283.542969 187.726562 281.59375 187.996094 278.851562 C 188.300781 275.808594 184.941406 275.035156 182.640625 275.023438 Z M 182.640625 275.023438 " fill-opacity="1" fill-rule="nonzero"/></g><g clip-path="url(#1147eed021)"><path fill="#efefef" d="M 221.53125 110.085938 L 221.53125 176.722656 C 221.53125 177.296875 221.070312 177.761719 220.496094 177.761719 L 154.589844 177.761719 C 154.015625 177.761719 153.554688 177.296875 153.554688 176.722656 L 153.554688 88.289062 C 153.554688 87.714844 154.015625 87.25 154.589844 87.25 L 198.734375 87.25 L 221.53125 110.085938 " fill-opacity="1" fill-rule="nonzero"/></g><g clip-path="url(#615bf44297)"><path fill="#ffd97c" d="M 150.316406 128.40625 C 150.316406 130.4375 148.523438 132.058594 146.4375 131.757812 C 144.722656 131.511719 143.550781 129.875 143.550781 128.140625 L 143.550781 117.757812 C 143.550781 116.023438 144.722656 114.386719 146.4375 114.140625 C 148.523438 113.839844 150.316406 115.457031 150.316406 117.492188 Z M 154.324219 119.214844 L 154.324219 117.777344 C 154.324219 114.203125 151.917969 110.917969 148.414062 110.234375 C 143.695312 109.308594 139.542969 112.921875 139.542969 117.492188 L 139.542969 128.121094 C 139.542969 131.695312 141.949219 134.980469 145.453125 135.664062 C 150.171875 136.589844 154.324219 132.972656 154.324219 128.40625 L 154.324219 126.589844 L 209.402344 126.589844 C 209.933594 126.589844 210.363281 127.019531 210.363281 127.546875 L 210.363281 135.453125 C 210.363281 135.984375 210.792969 136.417969 211.324219 136.417969 L 213.539062 136.417969 C 214.066406 136.417969 214.496094 135.984375 214.496094 135.453125 L 214.496094 133.363281 C 214.496094 132.832031 214.929688 132.398438 215.457031 132.398438 L 217.671875 132.398438 C 218.203125 132.398438 218.632812 132.832031 218.632812 133.363281 L 218.632812 135.453125 C 218.632812 135.984375 219.0625 136.417969 219.59375 136.417969 L 221.804688 136.417969 C 222.335938 136.417969 222.765625 135.984375 222.765625 135.453125 L 222.765625 133.363281 C 222.765625 132.832031 223.195312 132.398438 223.726562 132.398438 L 225.9375 132.398438 C 226.46875 132.398438 226.898438 132.832031 226.898438 133.363281 L 226.898438 135.453125 C 226.898438 135.984375 227.328125 136.417969 227.859375 136.417969 L 230.074219 136.417969 C 230.601562 136.417969 231.03125 135.984375 231.03125 135.453125 L 231.03125 127.546875 C 231.03125 127.019531 231.460938 126.589844 231.992188 126.589844 L 234.582031 126.589844 C 235.113281 126.589844 235.542969 126.15625 235.542969 125.625 L 235.542969 120.269531 C 235.542969 119.742188 235.113281 119.3125 234.582031 119.3125 L 154.421875 119.3125 C 154.367188 119.3125 154.324219 119.265625 154.324219 119.214844 " fill-opacity="1" fill-rule="nonzero"/></g><g clip-path="url(#7b806a5111)"><path fill="#ffb53e" d="M 146.4375 131.757812 C 148.523438 132.0625 150.304688 130.433594 150.304688 128.40625 L 150.304688 127.019531 C 150.304688 129.070312 148.523438 130.671875 146.4375 130.375 C 144.714844 130.132812 143.550781 128.488281 143.550781 126.761719 L 143.550781 128.144531 C 143.550781 129.871094 144.714844 131.519531 146.4375 131.757812 Z M 226.890625 131.980469 C 226.890625 131.457031 226.472656 131.015625 225.929688 131.015625 L 223.726562 131.015625 C 223.1875 131.015625 222.765625 131.457031 222.765625 131.980469 L 222.765625 133.363281 C 222.765625 132.824219 223.1875 132.398438 223.726562 132.398438 L 225.929688 132.398438 C 226.472656 132.398438 226.890625 132.824219 226.890625 133.363281 Z M 230.078125 135.03125 L 227.855469 135.03125 C 227.335938 135.03125 226.890625 134.609375 226.890625 134.066406 L 226.890625 135.453125 C 226.890625 135.992188 227.335938 136.417969 227.855469 136.417969 L 230.078125 136.417969 C 230.601562 136.417969 231.023438 135.992188 231.023438 135.453125 L 231.023438 134.066406 C 231.023438 134.609375 230.601562 135.03125 230.078125 135.03125 Z M 234.589844 125.214844 L 231.984375 125.214844 C 231.460938 125.214844 231.023438 125.636719 231.023438 126.175781 L 231.023438 127.542969 C 231.023438 127.019531 231.460938 126.578125 231.984375 126.578125 L 234.589844 126.578125 C 235.109375 126.578125 235.53125 126.15625 235.53125 125.617188 L 235.53125 124.25 C 235.53125 124.773438 235.109375 125.214844 234.589844 125.214844 Z M 221.800781 135.03125 L 219.597656 135.03125 C 219.054688 135.03125 218.632812 134.609375 218.632812 134.066406 L 218.632812 135.453125 C 218.632812 135.992188 219.054688 136.417969 219.597656 136.417969 L 221.800781 136.417969 C 222.324219 136.417969 222.765625 135.992188 222.765625 135.453125 L 222.765625 134.066406 C 222.765625 134.609375 222.324219 135.03125 221.800781 135.03125 Z M 213.542969 135.03125 L 211.320312 135.03125 C 210.796875 135.03125 210.355469 134.609375 210.355469 134.066406 L 210.355469 135.453125 C 210.355469 135.992188 210.796875 136.417969 211.320312 136.417969 L 213.542969 136.417969 C 214.0625 136.417969 214.484375 135.992188 214.484375 135.453125 L 214.484375 134.066406 C 214.484375 134.609375 214.0625 135.03125 213.542969 135.03125 Z M 145.457031 134.289062 C 141.949219 133.605469 139.542969 130.3125 139.542969 126.738281 L 139.542969 128.125 C 139.542969 131.699219 141.949219 134.972656 145.457031 135.671875 C 150.164062 136.597656 154.3125 132.984375 154.3125 128.40625 L 154.3125 127.019531 C 154.3125 131.597656 150.164062 135.210938 145.457031 134.289062 Z M 218.632812 131.980469 C 218.632812 131.457031 218.195312 131.015625 217.671875 131.015625 L 215.445312 131.015625 C 214.925781 131.015625 214.484375 131.457031 214.484375 131.980469 L 214.484375 133.363281 C 214.484375 132.824219 214.925781 132.398438 215.445312 132.398438 L 217.671875 132.398438 C 218.195312 132.398438 218.632812 132.824219 218.632812 133.363281 Z M 210.355469 127.542969 C 210.355469 127.019531 209.9375 126.578125 209.394531 126.578125 L 154.3125 126.578125 L 154.3125 125.214844 L 209.394531 125.214844 C 209.9375 125.214844 210.355469 125.636719 210.355469 126.175781 L 210.355469 127.542969 " fill-opacity="1" fill-rule="nonzero"/></g><path fill="#ffb53e" d="M 234.164062 123.683594 L 155.328125 123.683594 L 155.328125 120.710938 L 234.164062 120.710938 L 234.164062 123.683594 " fill-opacity="1" fill-rule="nonzero"/><path fill="#474545" d="M 163.957031 161.019531 L 195.335938 161.019531 C 195.789062 161.019531 196.152344 161.382812 196.152344 161.832031 L 196.152344 163.386719 C 196.152344 163.835938 195.789062 164.199219 195.335938 164.199219 L 163.957031 164.199219 C 163.507812 164.199219 163.140625 163.835938 163.140625 163.386719 L 163.140625 161.832031 C 163.140625 161.382812 163.507812 161.019531 163.957031 161.019531 Z M 163.957031 155.871094 L 209.367188 155.871094 C 209.820312 155.871094 210.183594 156.238281 210.183594 156.6875 L 210.183594 158.242188 C 210.183594 158.691406 209.820312 159.058594 209.367188 159.058594 L 163.957031 159.058594 C 163.507812 159.058594 163.140625 158.691406 163.140625 158.242188 L 163.140625 156.6875 C 163.140625 156.238281 163.507812 155.871094 163.957031 155.871094 Z M 163.957031 150.730469 L 209.367188 150.730469 C 209.820312 150.730469 210.183594 151.09375 210.183594 151.546875 L 210.183594 153.097656 C 210.183594 153.546875 209.820312 153.914062 209.367188 153.914062 L 163.957031 153.914062 C 163.507812 153.914062 163.140625 153.546875 163.140625 153.097656 L 163.140625 151.546875 C 163.140625 151.09375 163.507812 150.730469 163.957031 150.730469 Z M 163.957031 140.4375 L 189.324219 140.4375 C 189.773438 140.4375 190.140625 140.804688 190.140625 141.253906 L 190.140625 142.808594 C 190.140625 143.261719 189.773438 143.625 189.324219 143.625 L 163.957031 143.625 C 163.507812 143.625 163.140625 143.261719 163.140625 142.808594 L 163.140625 141.253906 C 163.140625 140.804688 163.507812 140.4375 163.957031 140.4375 Z M 163.957031 135.296875 L 209.367188 135.296875 C 209.820312 135.296875 210.183594 135.660156 210.183594 136.113281 L 210.183594 137.664062 C 210.183594 138.113281 209.820312 138.480469 209.367188 138.480469 L 163.957031 138.480469 C 163.507812 138.480469 163.140625 138.113281 163.140625 137.664062 L 163.140625 136.113281 C 163.140625 135.660156 163.507812 135.296875 163.957031 135.296875 Z M 163.140625 130.96875 L 163.140625 132.519531 C 163.140625 132.972656 163.507812 133.335938 163.957031 133.335938 L 209.367188 133.335938 C 209.820312 133.335938 210.183594 132.972656 210.183594 132.519531 L 210.183594 130.96875 C 210.183594 130.515625 209.820312 130.152344 209.367188 130.152344 L 163.957031 130.152344 C 163.507812 130.152344 163.140625 130.515625 163.140625 130.96875 Z M 163.957031 101.625 L 183.882812 101.625 C 184.332031 101.625 184.695312 101.992188 184.695312 102.441406 L 184.695312 103.996094 C 184.695312 104.445312 184.332031 104.8125 183.882812 104.8125 L 163.957031 104.8125 C 163.507812 104.8125 163.140625 104.445312 163.140625 103.996094 L 163.140625 102.441406 C 163.140625 101.992188 163.507812 101.625 163.957031 101.625 Z M 164.984375 106.554688 L 214.277344 106.554688 C 215.296875 106.554688 216.121094 107.378906 216.121094 108.398438 L 216.121094 114.890625 C 216.121094 115.90625 215.296875 116.734375 214.277344 116.734375 L 164.984375 116.734375 C 163.96875 116.734375 163.140625 115.90625 163.140625 114.890625 L 163.140625 108.398438 C 163.140625 107.378906 163.96875 106.554688 164.984375 106.554688 " fill-opacity="1" fill-rule="nonzero"/><path fill="#ffffff" d="M 166.921875 109.011719 L 203.378906 109.011719 C 203.808594 109.011719 204.15625 109.359375 204.15625 109.789062 L 204.15625 113.496094 C 204.15625 113.925781 203.808594 114.277344 203.378906 114.277344 L 166.921875 114.277344 C 166.492188 114.277344 166.140625 113.925781 166.140625 113.496094 L 166.140625 109.789062 C 166.140625 109.359375 166.492188 109.011719 166.921875 109.011719 Z M 215.035156 107.808594 L 215.035156 115.480469 L 206.203125 115.480469 L 206.203125 107.808594 L 215.035156 107.808594 " fill-opacity="1" fill-rule="nonzero"/><path fill="#474545" d="M 212.972656 114.542969 C 212.734375 114.734375 212.378906 114.679688 212.210938 114.417969 L 210.964844 112.550781 C 210.132812 113.015625 209.0625 112.832031 208.449219 112.0625 C 207.765625 111.207031 207.902344 109.957031 208.757812 109.273438 C 209.613281 108.582031 210.859375 108.722656 211.546875 109.578125 C 212.160156 110.347656 212.109375 111.429688 211.472656 112.144531 L 213.019531 113.769531 C 213.234375 113.988281 213.214844 114.351562 212.972656 114.542969 " fill-opacity="1" fill-rule="nonzero"/><path fill="#ffffff" d="M 211.191406 109.863281 C 211.71875 110.523438 211.613281 111.488281 210.953125 112.019531 C 210.296875 112.546875 209.332031 112.441406 208.804688 111.777344 C 208.273438 111.117188 208.382812 110.152344 209.039062 109.625 C 209.703125 109.097656 210.664062 109.203125 211.191406 109.863281 " fill-opacity="1" fill-rule="nonzero"/><path fill="#3eb3d4" d="M 211.082031 109.953125 C 211.5625 110.550781 211.464844 111.425781 210.867188 111.90625 C 210.265625 112.386719 209.394531 112.289062 208.914062 111.6875 C 208.4375 111.09375 208.53125 110.214844 209.132812 109.734375 C 209.726562 109.253906 210.601562 109.351562 211.082031 109.953125 " fill-opacity="1" fill-rule="nonzero"/><path fill="#ffffff" d="M 210.148438 109.90625 C 210.128906 109.914062 210.105469 109.921875 210.085938 109.917969 C 209.894531 109.90625 209.710938 109.964844 209.5625 110.078125 C 209.5 110.128906 209.414062 110.117188 209.367188 110.054688 C 209.320312 109.996094 209.328125 109.90625 209.390625 109.859375 C 209.59375 109.703125 209.84375 109.625 210.101562 109.640625 C 210.175781 109.644531 210.234375 109.710938 210.230469 109.789062 C 210.226562 109.84375 210.195312 109.886719 210.148438 109.90625 " fill-opacity="1" fill-rule="nonzero"/><g clip-path="url(#7291c464c2)"><path fill="#d8d8d8" d="M 221.53125 110.085938 L 198.734375 110.085938 L 198.734375 87.25 Z M 221.53125 110.085938 " fill-opacity="1" fill-rule="nonzero"/></g><g fill="#545454" fill-opacity="1"><g transform="translate(141.374356, 202.887601)"><g><path d="M 6.890625 -7.140625 C 6.640625 -7.148438 6.238281 -6.835938 5.6875 -6.203125 C 5.132812 -5.566406 4.648438 -4.894531 4.234375 -4.1875 C 3.828125 -3.488281 3.664062 -3.054688 3.75 -2.890625 C 3.84375 -2.722656 4.15625 -2.507812 4.6875 -2.25 C 5.21875 -1.988281 5.671875 -1.816406 6.046875 -1.734375 C 7.003906 -1.515625 7.644531 -1.832031 7.96875 -2.6875 C 8.25 -3.4375 8.285156 -4.320312 8.078125 -5.34375 C 7.867188 -6.363281 7.472656 -6.960938 6.890625 -7.140625 Z M 8.875 -0.015625 C 8.476562 0.273438 8.148438 0.445312 7.890625 0.5 C 7.628906 0.550781 7.078125 0.566406 6.234375 0.546875 C 5.398438 0.535156 4.59375 0.335938 3.8125 -0.046875 C 3.03125 -0.429688 2.460938 -0.582031 2.109375 -0.5 C 1.753906 -0.425781 1.4375 -0.507812 1.15625 -0.75 C 0.988281 -0.90625 0.890625 -1.242188 0.859375 -1.765625 C 0.828125 -2.285156 0.804688 -3.765625 0.796875 -6.203125 C 0.796875 -8.648438 0.832031 -10.40625 0.90625 -11.46875 C 1.019531 -12.53125 1.222656 -13.15625 1.515625 -13.34375 C 2.003906 -13.6875 2.488281 -13.675781 2.96875 -13.3125 C 3.15625 -13.175781 3.253906 -12.9375 3.265625 -12.59375 C 3.285156 -12.257812 3.269531 -11.378906 3.21875 -9.953125 L 3.0625 -6.90625 L 3.609375 -7.578125 C 3.941406 -8.035156 4.34375 -8.425781 4.8125 -8.75 C 5.289062 -9.082031 5.753906 -9.300781 6.203125 -9.40625 C 7.085938 -9.613281 7.921875 -9.410156 8.703125 -8.796875 C 9.484375 -8.191406 10.046875 -7.320312 10.390625 -6.1875 C 10.734375 -5.050781 10.75 -3.894531 10.4375 -2.71875 C 10.238281 -1.96875 10.03125 -1.398438 9.8125 -1.015625 C 9.59375 -0.640625 9.28125 -0.304688 8.875 -0.015625 Z M 8.875 -0.015625 "/></g></g></g><g fill="#545454" fill-opacity="1"><g transform="translate(152.580868, 203.121024)"><g><path d="M 4.640625 -2.453125 C 4.835938 -2.441406 5.132812 -2.726562 5.53125 -3.3125 C 5.925781 -3.90625 6.242188 -4.535156 6.484375 -5.203125 C 6.722656 -5.878906 6.851562 -6.34375 6.875 -6.59375 C 6.875 -6.851562 6.769531 -7.082031 6.5625 -7.28125 C 5.914062 -7.601562 5.335938 -7.644531 4.828125 -7.40625 C 4.316406 -7.164062 3.898438 -6.734375 3.578125 -6.109375 C 3.253906 -5.492188 3.140625 -4.882812 3.234375 -4.28125 C 3.285156 -3.925781 3.476562 -3.53125 3.8125 -3.09375 C 4.144531 -2.664062 4.421875 -2.453125 4.640625 -2.453125 Z M 10.328125 -4.265625 C 10.710938 -2.234375 10.898438 -1.003906 10.890625 -0.578125 C 10.878906 -0.160156 10.78125 0.128906 10.59375 0.296875 C 10.40625 0.472656 10.109375 0.554688 9.703125 0.546875 C 9.296875 0.535156 9.015625 0.410156 8.859375 0.171875 C 8.703125 -0.0546875 8.546875 -0.609375 8.390625 -1.484375 C 8.242188 -2.359375 8.140625 -2.796875 8.078125 -2.796875 C 8.035156 -2.796875 7.800781 -2.488281 7.375 -1.875 C 6.625 -0.738281 5.671875 -0.179688 4.515625 -0.203125 C 3.359375 -0.222656 2.40625 -0.835938 1.65625 -2.046875 C 1.09375 -2.960938 0.789062 -3.785156 0.75 -4.515625 C 0.71875 -5.253906 0.890625 -6 1.265625 -6.75 C 1.648438 -7.507812 2.140625 -8.175781 2.734375 -8.75 C 3.316406 -9.320312 3.835938 -9.675781 4.296875 -9.8125 C 5.503906 -10.195312 6.75 -9.984375 8.03125 -9.171875 C 8.78125 -8.679688 9.253906 -8.253906 9.453125 -7.890625 C 9.640625 -7.523438 9.929688 -6.316406 10.328125 -4.265625 Z M 10.328125 -4.265625 "/></g></g></g><g fill="#545454" fill-opacity="1"><g transform="translate(164.083959, 203.360624)"><g><path d="M 8.734375 -1.125 C 8.359375 -1.132812 8.070312 -1.328125 7.875 -1.703125 C 7.6875 -2.078125 7.503906 -2.757812 7.328125 -3.75 C 7.054688 -5.507812 6.703125 -6.519531 6.265625 -6.78125 C 6.160156 -6.832031 6.0625 -6.828125 5.96875 -6.765625 C 5.613281 -6.492188 5.195312 -5.164062 4.71875 -2.78125 C 4.5625 -2.007812 4.335938 -1.425781 4.046875 -1.03125 C 3.765625 -0.632812 3.460938 -0.460938 3.140625 -0.515625 C 2.828125 -0.578125 2.644531 -0.613281 2.59375 -0.625 C 2.425781 -0.625 2.273438 -0.878906 2.140625 -1.390625 C 2.015625 -1.898438 1.878906 -2.867188 1.734375 -4.296875 C 1.597656 -5.734375 1.390625 -6.789062 1.109375 -7.46875 C 0.640625 -8.625 0.726562 -9.34375 1.375 -9.625 C 2.0625 -9.96875 2.671875 -9.65625 3.203125 -8.6875 L 3.65625 -7.796875 L 4.328125 -8.484375 C 4.671875 -8.867188 5.085938 -9.140625 5.578125 -9.296875 C 6.066406 -9.453125 6.503906 -9.460938 6.890625 -9.328125 C 7.535156 -9.117188 8.085938 -8.625 8.546875 -7.84375 C 9.015625 -7.0625 9.363281 -6.019531 9.59375 -4.71875 C 9.820312 -3.414062 9.878906 -2.488281 9.765625 -1.9375 C 9.648438 -1.382812 9.304688 -1.113281 8.734375 -1.125 Z M 8.734375 -1.125 "/></g></g></g><g fill="#545454" fill-opacity="1"><g transform="translate(174.485463, 203.577279)"><g><path d="M 4.640625 -2.453125 C 4.835938 -2.441406 5.132812 -2.726562 5.53125 -3.3125 C 5.925781 -3.90625 6.242188 -4.535156 6.484375 -5.203125 C 6.722656 -5.878906 6.851562 -6.34375 6.875 -6.59375 C 6.875 -6.851562 6.769531 -7.082031 6.5625 -7.28125 C 5.914062 -7.601562 5.335938 -7.644531 4.828125 -7.40625 C 4.316406 -7.164062 3.898438 -6.734375 3.578125 -6.109375 C 3.253906 -5.492188 3.140625 -4.882812 3.234375 -4.28125 C 3.285156 -3.925781 3.476562 -3.53125 3.8125 -3.09375 C 4.144531 -2.664062 4.421875 -2.453125 4.640625 -2.453125 Z M 10.328125 -4.265625 C 10.710938 -2.234375 10.898438 -1.003906 10.890625 -0.578125 C 10.878906 -0.160156 10.78125 0.128906 10.59375 0.296875 C 10.40625 0.472656 10.109375 0.554688 9.703125 0.546875 C 9.296875 0.535156 9.015625 0.410156 8.859375 0.171875 C 8.703125 -0.0546875 8.546875 -0.609375 8.390625 -1.484375 C 8.242188 -2.359375 8.140625 -2.796875 8.078125 -2.796875 C 8.035156 -2.796875 7.800781 -2.488281 7.375 -1.875 C 6.625 -0.738281 5.671875 -0.179688 4.515625 -0.203125 C 3.359375 -0.222656 2.40625 -0.835938 1.65625 -2.046875 C 1.09375 -2.960938 0.789062 -3.785156 0.75 -4.515625 C 0.71875 -5.253906 0.890625 -6 1.265625 -6.75 C 1.648438 -7.507812 2.140625 -8.175781 2.734375 -8.75 C 3.316406 -9.320312 3.835938 -9.675781 4.296875 -9.8125 C 5.503906 -10.195312 6.75 -9.984375 8.03125 -9.171875 C 8.78125 -8.679688 9.253906 -8.253906 9.453125 -7.890625 C 9.640625 -7.523438 9.929688 -6.316406 10.328125 -4.265625 Z M 10.328125 -4.265625 "/></g></g></g><g fill="#545454" fill-opacity="1"><g transform="translate(185.988554, 203.81688)"><g/></g></g><g fill="#545454" fill-opacity="1"><g transform="translate(193.869126, 203.981026)"><g><path d="M 5.21875 -3.46875 C 5.445312 -3.707031 5.710938 -4.25 6.015625 -5.09375 C 6.316406 -5.9375 6.5 -6.546875 6.5625 -6.921875 C 6.625 -7.296875 6.613281 -7.515625 6.53125 -7.578125 C 6.445312 -7.640625 6.210938 -7.691406 5.828125 -7.734375 C 4.878906 -7.835938 4.132812 -7.359375 3.59375 -6.296875 C 3.382812 -5.835938 3.257812 -5.296875 3.21875 -4.671875 C 3.175781 -4.054688 3.25 -3.632812 3.4375 -3.40625 C 3.632812 -3.175781 3.921875 -3.070312 4.296875 -3.09375 C 4.679688 -3.113281 4.988281 -3.238281 5.21875 -3.46875 Z M 4.203125 -9.96875 C 4.765625 -10.15625 5.300781 -10.242188 5.8125 -10.234375 C 6.320312 -10.222656 6.929688 -10.066406 7.640625 -9.765625 C 8.359375 -9.460938 8.828125 -9.164062 9.046875 -8.875 C 9.359375 -8.507812 9.492188 -6.398438 9.453125 -2.546875 C 9.421875 -1.222656 9.28125 -0.179688 9.03125 0.578125 C 8.789062 1.335938 8.410156 1.960938 7.890625 2.453125 C 7.378906 2.953125 6.796875 3.320312 6.140625 3.5625 C 5.484375 3.800781 4.898438 3.914062 4.390625 3.90625 C 3.878906 3.894531 3.539062 3.863281 3.375 3.8125 C 3.207031 3.726562 3.054688 3.554688 2.921875 3.296875 C 2.753906 3.046875 2.703125 2.75 2.765625 2.40625 C 2.835938 2.070312 2.992188 1.859375 3.234375 1.765625 C 3.472656 1.671875 3.914062 1.585938 4.5625 1.515625 C 5.21875 1.441406 5.75 1.210938 6.15625 0.828125 C 6.5625 0.441406 6.835938 -0.140625 6.984375 -0.921875 L 7.140625 -1.8125 L 6.34375 -1.3125 C 5.363281 -0.6875 4.363281 -0.492188 3.34375 -0.734375 C 2.332031 -0.984375 1.582031 -1.632812 1.09375 -2.6875 C 0.613281 -3.75 0.617188 -5.054688 1.109375 -6.609375 C 1.304688 -7.265625 1.738281 -7.941406 2.40625 -8.640625 C 3.070312 -9.335938 3.671875 -9.78125 4.203125 -9.96875 Z M 4.203125 -9.96875 "/></g></g></g><g fill="#545454" fill-opacity="1"><g transform="translate(203.889314, 204.189739)"><g><path d="M 7.609375 -3.640625 C 7.878906 -4.117188 8.019531 -4.625 8.03125 -5.15625 C 8.039062 -5.695312 7.945312 -6.097656 7.75 -6.359375 C 7.5625 -6.617188 7.222656 -6.8125 6.734375 -6.9375 C 5.765625 -7.1875 5.023438 -7.21875 4.515625 -7.03125 C 4.003906 -6.84375 3.617188 -6.445312 3.359375 -5.84375 C 3.109375 -5.238281 3.019531 -4.78125 3.09375 -4.46875 C 3.175781 -4.15625 3.441406 -3.84375 3.890625 -3.53125 C 5.046875 -2.625 5.976562 -2.347656 6.6875 -2.703125 C 7.039062 -2.859375 7.347656 -3.171875 7.609375 -3.640625 Z M 5.484375 -9.375 C 6.171875 -9.3125 6.753906 -9.273438 7.234375 -9.265625 C 7.710938 -9.253906 8.035156 -9.234375 8.203125 -9.203125 C 8.367188 -9.171875 8.5625 -9.109375 8.78125 -9.015625 C 9.007812 -8.921875 9.210938 -8.765625 9.390625 -8.546875 C 9.515625 -8.304688 9.675781 -7.96875 9.875 -7.53125 C 10.4375 -6.300781 10.546875 -5.050781 10.203125 -3.78125 C 9.867188 -2.519531 9.195312 -1.5625 8.1875 -0.90625 C 6.40625 0.257812 4.441406 -0.0507812 2.296875 -1.84375 C 1.515625 -2.5 1.03125 -3.09375 0.84375 -3.625 C 0.65625 -4.164062 0.691406 -4.898438 0.953125 -5.828125 C 1.335938 -7.222656 2.085938 -8.296875 3.203125 -9.046875 C 3.554688 -9.285156 3.851562 -9.414062 4.09375 -9.4375 C 4.34375 -9.46875 4.804688 -9.445312 5.484375 -9.375 Z M 3.953125 -12.609375 C 4.117188 -12.710938 4.367188 -12.710938 4.703125 -12.609375 C 5.046875 -12.515625 5.300781 -12.367188 5.46875 -12.171875 C 5.832031 -11.660156 5.765625 -11.160156 5.265625 -10.671875 C 4.941406 -10.359375 4.609375 -10.234375 4.265625 -10.296875 C 3.921875 -10.359375 3.644531 -10.617188 3.4375 -11.078125 C 3.3125 -11.304688 3.300781 -11.578125 3.40625 -11.890625 C 3.519531 -12.203125 3.703125 -12.441406 3.953125 -12.609375 Z M 6.953125 -12.8125 C 7.503906 -13.4375 8.050781 -13.457031 8.59375 -12.875 C 8.882812 -12.582031 9.007812 -12.257812 8.96875 -11.90625 C 8.9375 -11.550781 8.75 -11.265625 8.40625 -11.046875 C 8.070312 -10.835938 7.71875 -10.8125 7.34375 -10.96875 C 6.976562 -11.132812 6.753906 -11.390625 6.671875 -11.734375 C 6.597656 -12.078125 6.691406 -12.4375 6.953125 -12.8125 Z M 6.953125 -12.8125 "/></g></g></g><g fill="#545454" fill-opacity="1"><g transform="translate(214.820427, 204.417425)"><g><path d="M 3.125 -9.125 C 3.195312 -9.039062 3.257812 -9 3.3125 -9 C 3.375 -9 3.40625 -9.015625 3.40625 -9.046875 C 3.4375 -9.078125 3.484375 -9.179688 3.546875 -9.359375 C 3.609375 -9.535156 3.851562 -9.789062 4.28125 -10.125 C 4.707031 -10.457031 5.082031 -10.660156 5.40625 -10.734375 C 6.125 -10.898438 6.957031 -10.875 7.90625 -10.65625 C 8.863281 -10.4375 9.4375 -10.128906 9.625 -9.734375 C 9.914062 -9.179688 9.859375 -8.722656 9.453125 -8.359375 C 9.054688 -8.003906 8.570312 -7.925781 8 -8.125 C 7.4375 -8.320312 6.957031 -8.398438 6.5625 -8.359375 C 6.175781 -8.328125 5.910156 -8.234375 5.765625 -8.078125 C 5.617188 -7.929688 5.367188 -7.523438 5.015625 -6.859375 C 4.691406 -6.179688 4.488281 -5.664062 4.40625 -5.3125 C 4.320312 -4.957031 4.265625 -4.269531 4.234375 -3.25 C 4.203125 -2.238281 4.160156 -1.59375 4.109375 -1.3125 C 4.066406 -1.03125 3.957031 -0.828125 3.78125 -0.703125 C 3.476562 -0.503906 3.171875 -0.421875 2.859375 -0.453125 C 2.546875 -0.484375 2.304688 -0.632812 2.140625 -0.90625 C 2.003906 -1.3125 1.863281 -2.25 1.71875 -3.71875 C 1.582031 -5.195312 1.410156 -6.304688 1.203125 -7.046875 C 0.992188 -7.785156 0.867188 -8.351562 0.828125 -8.75 C 0.796875 -9.144531 0.835938 -9.425781 0.953125 -9.59375 C 1.078125 -9.769531 1.285156 -9.894531 1.578125 -9.96875 C 1.878906 -10.050781 2.097656 -10.0625 2.234375 -10 C 2.378906 -9.9375 2.550781 -9.796875 2.75 -9.578125 C 2.9375 -9.367188 3.0625 -9.21875 3.125 -9.125 Z M 3.125 -9.125 "/></g></g></g><g fill="#545454" fill-opacity="1"><g transform="translate(225.052458, 204.630551)"><g><path d="M 6.203125 -6.859375 C 5.273438 -7.265625 4.628906 -7.273438 4.265625 -6.890625 C 4.054688 -6.617188 4.078125 -6.445312 4.328125 -6.375 C 4.578125 -6.300781 5.125 -6.222656 5.96875 -6.140625 C 6.789062 -6.078125 7.148438 -6.144531 7.046875 -6.34375 C 6.992188 -6.46875 6.710938 -6.640625 6.203125 -6.859375 Z M 10.234375 -5.578125 C 10.222656 -5.253906 10.003906 -4.914062 9.578125 -4.5625 C 9.160156 -4.21875 8.707031 -4.007812 8.21875 -3.9375 C 7.738281 -3.863281 6.851562 -3.832031 5.5625 -3.84375 C 4.28125 -3.851562 3.539062 -3.898438 3.34375 -3.984375 C 3.15625 -4.078125 3.054688 -4.097656 3.046875 -4.046875 L 3.296875 -3.390625 C 3.617188 -2.554688 4.019531 -2.085938 4.5 -1.984375 C 4.976562 -1.890625 5.710938 -2.039062 6.703125 -2.4375 C 7.703125 -2.84375 8.3125 -3.0625 8.53125 -3.09375 C 8.75 -3.132812 9 -3.0625 9.28125 -2.875 C 9.570312 -2.6875 9.726562 -2.394531 9.75 -2 C 9.769531 -1.601562 9.648438 -1.296875 9.390625 -1.078125 C 9.128906 -0.859375 8.570312 -0.578125 7.71875 -0.234375 C 6.863281 0.109375 6.265625 0.3125 5.921875 0.375 C 5.585938 0.445312 5.085938 0.453125 4.421875 0.390625 C 3.765625 0.328125 3.171875 0.101562 2.640625 -0.28125 C 2.109375 -0.664062 1.664062 -1.226562 1.3125 -1.96875 C 0.957031 -2.707031 0.765625 -3.472656 0.734375 -4.265625 C 0.710938 -5.054688 0.828125 -5.738281 1.078125 -6.3125 C 1.335938 -6.882812 1.726562 -7.488281 2.25 -8.125 C 2.769531 -8.769531 3.222656 -9.179688 3.609375 -9.359375 C 3.992188 -9.535156 4.582031 -9.585938 5.375 -9.515625 C 6.164062 -9.441406 6.800781 -9.289062 7.28125 -9.0625 C 8.125 -8.613281 8.828125 -8.054688 9.390625 -7.390625 C 9.960938 -6.734375 10.242188 -6.128906 10.234375 -5.578125 Z M 10.234375 -5.578125 "/></g></g></g><g fill="#545454" fill-opacity="1"><g transform="translate(151.656641, 232.368976)"><g><path d="M 3.34375 -1.921875 C 3.1875 -1.617188 2.894531 -1.472656 2.46875 -1.484375 C 2.039062 -1.492188 1.75 -1.640625 1.59375 -1.921875 C 1.4375 -2.203125 1.253906 -2.878906 1.046875 -3.953125 C 0.847656 -5.035156 0.757812 -5.875 0.78125 -6.46875 C 0.789062 -7.03125 0.898438 -7.4375 1.109375 -7.6875 C 1.328125 -7.9375 1.632812 -8.054688 2.03125 -8.046875 C 2.425781 -8.046875 2.691406 -7.941406 2.828125 -7.734375 C 2.960938 -7.535156 3.082031 -7.15625 3.1875 -6.59375 C 3.28125 -6.03125 3.390625 -4.992188 3.515625 -3.484375 C 3.554688 -2.742188 3.5 -2.222656 3.34375 -1.921875 Z M 3.328125 -10.90625 C 3.316406 -10.601562 3.179688 -10.328125 2.921875 -10.078125 C 2.660156 -9.828125 2.382812 -9.703125 2.09375 -9.703125 C 1.632812 -9.710938 1.328125 -9.984375 1.171875 -10.515625 C 1.023438 -11.035156 1.113281 -11.476562 1.4375 -11.84375 C 1.757812 -12.207031 2.15625 -12.269531 2.625 -12.03125 C 3.101562 -11.789062 3.335938 -11.414062 3.328125 -10.90625 Z M 3.328125 -10.90625 "/></g></g></g><g fill="#545454" fill-opacity="1"><g transform="translate(155.766401, 232.454579)"><g><path d="M 8.734375 -1.125 C 8.359375 -1.132812 8.070312 -1.328125 7.875 -1.703125 C 7.6875 -2.078125 7.503906 -2.757812 7.328125 -3.75 C 7.054688 -5.507812 6.703125 -6.519531 6.265625 -6.78125 C 6.160156 -6.832031 6.0625 -6.828125 5.96875 -6.765625 C 5.613281 -6.492188 5.195312 -5.164062 4.71875 -2.78125 C 4.5625 -2.007812 4.335938 -1.425781 4.046875 -1.03125 C 3.765625 -0.632812 3.460938 -0.460938 3.140625 -0.515625 C 2.828125 -0.578125 2.644531 -0.613281 2.59375 -0.625 C 2.425781 -0.625 2.273438 -0.878906 2.140625 -1.390625 C 2.015625 -1.898438 1.878906 -2.867188 1.734375 -4.296875 C 1.597656 -5.734375 1.390625 -6.789062 1.109375 -7.46875 C 0.640625 -8.625 0.726562 -9.34375 1.375 -9.625 C 2.0625 -9.96875 2.671875 -9.65625 3.203125 -8.6875 L 3.65625 -7.796875 L 4.328125 -8.484375 C 4.671875 -8.867188 5.085938 -9.140625 5.578125 -9.296875 C 6.066406 -9.453125 6.503906 -9.460938 6.890625 -9.328125 C 7.535156 -9.117188 8.085938 -8.625 8.546875 -7.84375 C 9.015625 -7.0625 9.363281 -6.019531 9.59375 -4.71875 C 9.820312 -3.414062 9.878906 -2.488281 9.765625 -1.9375 C 9.648438 -1.382812 9.304688 -1.113281 8.734375 -1.125 Z M 8.734375 -1.125 "/></g></g></g><g fill="#545454" fill-opacity="1"><g transform="translate(166.167905, 232.671234)"><g><path d="M 5.21875 -3.46875 C 5.445312 -3.707031 5.710938 -4.25 6.015625 -5.09375 C 6.316406 -5.9375 6.5 -6.546875 6.5625 -6.921875 C 6.625 -7.296875 6.613281 -7.515625 6.53125 -7.578125 C 6.445312 -7.640625 6.210938 -7.691406 5.828125 -7.734375 C 4.878906 -7.835938 4.132812 -7.359375 3.59375 -6.296875 C 3.382812 -5.835938 3.257812 -5.296875 3.21875 -4.671875 C 3.175781 -4.054688 3.25 -3.632812 3.4375 -3.40625 C 3.632812 -3.175781 3.921875 -3.070312 4.296875 -3.09375 C 4.679688 -3.113281 4.988281 -3.238281 5.21875 -3.46875 Z M 4.203125 -9.96875 C 4.765625 -10.15625 5.300781 -10.242188 5.8125 -10.234375 C 6.320312 -10.222656 6.929688 -10.066406 7.640625 -9.765625 C 8.359375 -9.460938 8.828125 -9.164062 9.046875 -8.875 C 9.359375 -8.507812 9.492188 -6.398438 9.453125 -2.546875 C 9.421875 -1.222656 9.28125 -0.179688 9.03125 0.578125 C 8.789062 1.335938 8.410156 1.960938 7.890625 2.453125 C 7.378906 2.953125 6.796875 3.320312 6.140625 3.5625 C 5.484375 3.800781 4.898438 3.914062 4.390625 3.90625 C 3.878906 3.894531 3.539062 3.863281 3.375 3.8125 C 3.207031 3.726562 3.054688 3.554688 2.921875 3.296875 C 2.753906 3.046875 2.703125 2.75 2.765625 2.40625 C 2.835938 2.070312 2.992188 1.859375 3.234375 1.765625 C 3.472656 1.671875 3.914062 1.585938 4.5625 1.515625 C 5.21875 1.441406 5.75 1.210938 6.15625 0.828125 C 6.5625 0.441406 6.835938 -0.140625 6.984375 -0.921875 L 7.140625 -1.8125 L 6.34375 -1.3125 C 5.363281 -0.6875 4.363281 -0.492188 3.34375 -0.734375 C 2.332031 -0.984375 1.582031 -1.632812 1.09375 -2.6875 C 0.613281 -3.75 0.617188 -5.054688 1.109375 -6.609375 C 1.304688 -7.265625 1.738281 -7.941406 2.40625 -8.640625 C 3.070312 -9.335938 3.671875 -9.78125 4.203125 -9.96875 Z M 4.203125 -9.96875 "/></g></g></g><g fill="#545454" fill-opacity="1"><g transform="translate(176.188094, 232.879947)"><g><path d="M 3.34375 -1.921875 C 3.1875 -1.617188 2.894531 -1.472656 2.46875 -1.484375 C 2.039062 -1.492188 1.75 -1.640625 1.59375 -1.921875 C 1.4375 -2.203125 1.253906 -2.878906 1.046875 -3.953125 C 0.847656 -5.035156 0.757812 -5.875 0.78125 -6.46875 C 0.789062 -7.03125 0.898438 -7.4375 1.109375 -7.6875 C 1.328125 -7.9375 1.632812 -8.054688 2.03125 -8.046875 C 2.425781 -8.046875 2.691406 -7.941406 2.828125 -7.734375 C 2.960938 -7.535156 3.082031 -7.15625 3.1875 -6.59375 C 3.28125 -6.03125 3.390625 -4.992188 3.515625 -3.484375 C 3.554688 -2.742188 3.5 -2.222656 3.34375 -1.921875 Z M 3.328125 -10.90625 C 3.316406 -10.601562 3.179688 -10.328125 2.921875 -10.078125 C 2.660156 -9.828125 2.382812 -9.703125 2.09375 -9.703125 C 1.632812 -9.710938 1.328125 -9.984375 1.171875 -10.515625 C 1.023438 -11.035156 1.113281 -11.476562 1.4375 -11.84375 C 1.757812 -12.207031 2.15625 -12.269531 2.625 -12.03125 C 3.101562 -11.789062 3.335938 -11.414062 3.328125 -10.90625 Z M 3.328125 -10.90625 "/></g></g></g><g fill="#545454" fill-opacity="1"><g transform="translate(180.297853, 232.96555)"><g><path d="M 2.109375 -15.265625 C 2.691406 -15.242188 3.046875 -14.90625 3.171875 -14.25 C 3.304688 -13.601562 3.367188 -11.742188 3.359375 -8.671875 C 3.359375 -5.597656 3.414062 -3.796875 3.53125 -3.265625 C 3.65625 -2.742188 3.898438 -2.414062 4.265625 -2.28125 C 4.398438 -2.25 4.722656 -2.1875 5.234375 -2.09375 C 5.753906 -2 6.140625 -1.859375 6.390625 -1.671875 C 6.640625 -1.492188 6.757812 -1.226562 6.75 -0.875 C 6.738281 -0.113281 6.179688 0.253906 5.078125 0.234375 C 4.234375 0.210938 3.472656 0.015625 2.796875 -0.359375 C 2.128906 -0.742188 1.632812 -1.273438 1.3125 -1.953125 C 1.132812 -2.273438 1.019531 -2.945312 0.96875 -3.96875 C 0.914062 -4.988281 0.882812 -6.757812 0.875 -9.28125 C 0.875 -11.8125 0.898438 -13.359375 0.953125 -13.921875 C 0.972656 -14.484375 1.066406 -14.847656 1.234375 -15.015625 C 1.410156 -15.179688 1.703125 -15.265625 2.109375 -15.265625 Z M 2.109375 -15.265625 "/></g></g></g><g fill="#545454" fill-opacity="1"><g transform="translate(187.669996, 233.119106)"><g><path d="M 3.34375 -1.921875 C 3.1875 -1.617188 2.894531 -1.472656 2.46875 -1.484375 C 2.039062 -1.492188 1.75 -1.640625 1.59375 -1.921875 C 1.4375 -2.203125 1.253906 -2.878906 1.046875 -3.953125 C 0.847656 -5.035156 0.757812 -5.875 0.78125 -6.46875 C 0.789062 -7.03125 0.898438 -7.4375 1.109375 -7.6875 C 1.328125 -7.9375 1.632812 -8.054688 2.03125 -8.046875 C 2.425781 -8.046875 2.691406 -7.941406 2.828125 -7.734375 C 2.960938 -7.535156 3.082031 -7.15625 3.1875 -6.59375 C 3.28125 -6.03125 3.390625 -4.992188 3.515625 -3.484375 C 3.554688 -2.742188 3.5 -2.222656 3.34375 -1.921875 Z M 3.328125 -10.90625 C 3.316406 -10.601562 3.179688 -10.328125 2.921875 -10.078125 C 2.660156 -9.828125 2.382812 -9.703125 2.09375 -9.703125 C 1.632812 -9.710938 1.328125 -9.984375 1.171875 -10.515625 C 1.023438 -11.035156 1.113281 -11.476562 1.4375 -11.84375 C 1.757812 -12.207031 2.15625 -12.269531 2.625 -12.03125 C 3.101562 -11.789062 3.335938 -11.414062 3.328125 -10.90625 Z M 3.328125 -10.90625 "/></g></g></g><g fill="#545454" fill-opacity="1"><g transform="translate(191.779756, 233.204709)"><g><path d="M 10.046875 1.6875 C 9.648438 1.738281 8.4375 1.742188 6.40625 1.703125 C 4.375 1.660156 3.144531 1.5625 2.71875 1.40625 C 2.300781 1.257812 2.046875 0.84375 1.953125 0.15625 C 1.890625 -0.289062 2.023438 -0.765625 2.359375 -1.265625 C 2.691406 -1.765625 3.570312 -2.832031 5 -4.46875 C 6.4375 -6.113281 7.160156 -6.960938 7.171875 -7.015625 C 7.148438 -7.078125 6.273438 -7.097656 4.546875 -7.078125 C 2.828125 -7.054688 1.769531 -7.101562 1.375 -7.21875 C 0.988281 -7.34375 0.800781 -7.65625 0.8125 -8.15625 C 0.820312 -8.664062 0.953125 -8.984375 1.203125 -9.109375 C 1.453125 -9.234375 2.0625 -9.296875 3.03125 -9.296875 C 4 -9.304688 4.84375 -9.347656 5.5625 -9.421875 C 8.164062 -9.671875 9.671875 -9.578125 10.078125 -9.140625 C 10.304688 -8.921875 10.4375 -8.597656 10.46875 -8.171875 C 10.5 -7.742188 10.421875 -7.359375 10.234375 -7.015625 C 9.941406 -6.578125 9.035156 -5.46875 7.515625 -3.6875 C 6.003906 -1.914062 5.125 -0.867188 4.875 -0.546875 C 8.53125 -0.628906 10.535156 -0.628906 10.890625 -0.546875 C 11.066406 -0.367188 11.207031 -0.140625 11.3125 0.140625 C 11.425781 0.429688 11.453125 0.640625 11.390625 0.765625 C 11.359375 0.890625 11.222656 1.0625 10.984375 1.28125 C 10.753906 1.5 10.441406 1.632812 10.046875 1.6875 Z M 10.046875 1.6875 "/></g></g></g><g fill="#545454" fill-opacity="1"><g transform="translate(203.833636, 233.455782)"><g><path d="M 9.140625 -2.390625 C 9.140625 -1.984375 8.921875 -1.609375 8.484375 -1.265625 C 7.503906 -0.492188 6.488281 -0.0351562 5.4375 0.109375 C 4.394531 0.253906 3.46875 0.0664062 2.65625 -0.453125 C 1.851562 -0.972656 1.304688 -1.753906 1.015625 -2.796875 C 0.609375 -4.179688 0.632812 -5.625 1.09375 -7.125 C 1.5625 -8.625 2.242188 -9.597656 3.140625 -10.046875 C 3.742188 -10.359375 4.625 -10.359375 5.78125 -10.046875 C 6.9375 -9.742188 7.769531 -9.289062 8.28125 -8.6875 C 8.789062 -8.082031 9.085938 -7.46875 9.171875 -6.84375 C 9.253906 -6.226562 9.101562 -5.800781 8.71875 -5.5625 C 8.332031 -5.320312 7.972656 -5.28125 7.640625 -5.4375 C 7.304688 -5.59375 7.046875 -5.921875 6.859375 -6.421875 C 6.671875 -6.929688 6.226562 -7.351562 5.53125 -7.6875 C 4.851562 -7.988281 4.351562 -8 4.03125 -7.71875 C 3.582031 -7.289062 3.316406 -6.453125 3.234375 -5.203125 C 3.148438 -3.960938 3.300781 -3.117188 3.6875 -2.671875 C 3.957031 -2.335938 4.390625 -2.203125 4.984375 -2.265625 C 5.578125 -2.335938 6.175781 -2.566406 6.78125 -2.953125 C 7.382812 -3.335938 7.753906 -3.539062 7.890625 -3.5625 C 8.035156 -3.582031 8.28125 -3.488281 8.625 -3.28125 C 8.976562 -3.082031 9.148438 -2.785156 9.140625 -2.390625 Z M 9.140625 -2.390625 "/></g></g></g><g fill="#545454" fill-opacity="1"><g transform="translate(213.557245, 233.658318)"><g><path d="M 6.203125 -6.859375 C 5.273438 -7.265625 4.628906 -7.273438 4.265625 -6.890625 C 4.054688 -6.617188 4.078125 -6.445312 4.328125 -6.375 C 4.578125 -6.300781 5.125 -6.222656 5.96875 -6.140625 C 6.789062 -6.078125 7.148438 -6.144531 7.046875 -6.34375 C 6.992188 -6.46875 6.710938 -6.640625 6.203125 -6.859375 Z M 10.234375 -5.578125 C 10.222656 -5.253906 10.003906 -4.914062 9.578125 -4.5625 C 9.160156 -4.21875 8.707031 -4.007812 8.21875 -3.9375 C 7.738281 -3.863281 6.851562 -3.832031 5.5625 -3.84375 C 4.28125 -3.851562 3.539062 -3.898438 3.34375 -3.984375 C 3.15625 -4.078125 3.054688 -4.097656 3.046875 -4.046875 L 3.296875 -3.390625 C 3.617188 -2.554688 4.019531 -2.085938 4.5 -1.984375 C 4.976562 -1.890625 5.710938 -2.039062 6.703125 -2.4375 C 7.703125 -2.84375 8.3125 -3.0625 8.53125 -3.09375 C 8.75 -3.132812 9 -3.0625 9.28125 -2.875 C 9.570312 -2.6875 9.726562 -2.394531 9.75 -2 C 9.769531 -1.601562 9.648438 -1.296875 9.390625 -1.078125 C 9.128906 -0.859375 8.570312 -0.578125 7.71875 -0.234375 C 6.863281 0.109375 6.265625 0.3125 5.921875 0.375 C 5.585938 0.445312 5.085938 0.453125 4.421875 0.390625 C 3.765625 0.328125 3.171875 0.101562 2.640625 -0.28125 C 2.109375 -0.664062 1.664062 -1.226562 1.3125 -1.96875 C 0.957031 -2.707031 0.765625 -3.472656 0.734375 -4.265625 C 0.710938 -5.054688 0.828125 -5.738281 1.078125 -6.3125 C 1.335938 -6.882812 1.726562 -7.488281 2.25 -8.125 C 2.769531 -8.769531 3.222656 -9.179688 3.609375 -9.359375 C 3.992188 -9.535156 4.582031 -9.585938 5.375 -9.515625 C 6.164062 -9.441406 6.800781 -9.289062 7.28125 -9.0625 C 8.125 -8.613281 8.828125 -8.054688 9.390625 -7.390625 C 9.960938 -6.734375 10.242188 -6.128906 10.234375 -5.578125 Z M 10.234375 -5.578125 "/></g></g></g></svg>