<svg xmlns="http://www.w3.org/2000/svg" xmlns:xlink="http://www.w3.org/1999/xlink" width="500" zoomAndPan="magnify" viewBox="0 0 375 374.999991" height="500" preserveAspectRatio="xMidYMid meet" version="1.0"><defs><clipPath id="bce259b894"><path d="M 179 62 L 307 62 L 307 300.945312 L 179 300.945312 Z M 179 62 " clip-rule="nonzero"/></clipPath><clipPath id="1f4cb4bbf7"><path d="M 53 48.945312 L 181 48.945312 L 181 288 L 53 288 Z M 53 48.945312 " clip-rule="nonzero"/></clipPath><clipPath id="934897cd8f"><path d="M 115.480469 141.054688 L 167.980469 141.054688 L 167.980469 208.554688 L 115.480469 208.554688 Z M 115.480469 141.054688 " clip-rule="nonzero"/></clipPath><clipPath id="6cc29333f3"><path d="M 188 149 L 255 149 L 255 218 L 188 218 Z M 188 149 " clip-rule="nonzero"/></clipPath><clipPath id="7b5304248b"><path d="M 207.726562 141.054688 L 263.789062 191.996094 L 236.050781 222.527344 L 179.988281 171.585938 Z M 207.726562 141.054688 " clip-rule="nonzero"/></clipPath><clipPath id="29a63ce532"><path d="M 207.726562 141.054688 L 263.789062 191.996094 L 236.050781 222.527344 L 179.988281 171.585938 Z M 207.726562 141.054688 " clip-rule="nonzero"/></clipPath></defs><path fill="#ff914d" d="M 289.796875 174.964844 C 289.796875 176.742188 289.753906 178.519531 289.667969 180.296875 C 289.578125 182.070312 289.449219 183.84375 289.273438 185.613281 C 289.097656 187.382812 288.882812 189.148438 288.621094 190.90625 C 288.359375 192.667969 288.054688 194.417969 287.710938 196.164062 C 287.363281 197.90625 286.972656 199.640625 286.539062 201.367188 C 286.109375 203.089844 285.632812 204.804688 285.117188 206.507812 C 284.601562 208.207031 284.042969 209.898438 283.445312 211.570312 C 282.847656 213.246094 282.207031 214.902344 281.527344 216.546875 C 280.84375 218.191406 280.125 219.816406 279.363281 221.421875 C 278.605469 223.03125 277.804688 224.617188 276.964844 226.1875 C 276.128906 227.753906 275.253906 229.300781 274.335938 230.828125 C 273.421875 232.351562 272.472656 233.855469 271.484375 235.332031 C 270.496094 236.8125 269.472656 238.265625 268.414062 239.695312 C 267.355469 241.121094 266.261719 242.523438 265.132812 243.898438 C 264.003906 245.273438 262.84375 246.617188 261.648438 247.9375 C 260.453125 249.253906 259.226562 250.542969 257.972656 251.800781 C 256.714844 253.058594 255.425781 254.28125 254.109375 255.476562 C 252.789062 256.671875 251.445312 257.832031 250.070312 258.960938 C 248.695312 260.089844 247.292969 261.183594 245.867188 262.242188 C 244.4375 263.300781 242.984375 264.324219 241.503906 265.3125 C 240.027344 266.300781 238.523438 267.25 237 268.167969 C 235.472656 269.082031 233.925781 269.957031 232.359375 270.792969 C 230.789062 271.632812 229.203125 272.433594 227.59375 273.191406 C 225.988281 273.953125 224.363281 274.671875 222.71875 275.355469 C 221.074219 276.035156 219.417969 276.675781 217.742188 277.273438 C 216.070312 277.871094 214.378906 278.429688 212.679688 278.945312 C 210.976562 279.460938 209.261719 279.9375 207.539062 280.367188 C 205.8125 280.800781 204.078125 281.191406 202.335938 281.539062 C 200.589844 281.882812 198.839844 282.1875 197.078125 282.449219 C 195.320312 282.710938 193.554688 282.929688 191.785156 283.101562 C 190.015625 283.277344 188.242188 283.40625 186.46875 283.496094 C 184.691406 283.582031 182.914062 283.625 181.136719 283.625 C 179.359375 283.625 177.582031 283.582031 175.804688 283.496094 C 174.027344 283.40625 172.253906 283.277344 170.484375 283.101562 C 168.714844 282.929688 166.949219 282.710938 165.191406 282.449219 C 163.433594 282.1875 161.679688 281.882812 159.9375 281.539062 C 158.191406 281.191406 156.457031 280.800781 154.734375 280.367188 C 153.007812 279.9375 151.296875 279.460938 149.59375 278.945312 C 147.890625 278.429688 146.203125 277.871094 144.527344 277.273438 C 142.855469 276.675781 141.195312 276.035156 139.554688 275.355469 C 137.910156 274.671875 136.285156 273.953125 134.675781 273.191406 C 133.070312 272.433594 131.480469 271.632812 129.914062 270.792969 C 128.34375 269.957031 126.796875 269.082031 125.273438 268.167969 C 123.746094 267.25 122.246094 266.300781 120.765625 265.3125 C 119.289062 264.324219 117.835938 263.300781 116.40625 262.242188 C 114.976562 261.183594 113.578125 260.089844 112.203125 258.960938 C 110.828125 257.832031 109.480469 256.671875 108.164062 255.476562 C 106.847656 254.28125 105.558594 253.058594 104.300781 251.800781 C 103.042969 250.542969 101.816406 249.253906 100.625 247.9375 C 99.429688 246.617188 98.269531 245.273438 97.140625 243.898438 C 96.011719 242.523438 94.917969 241.121094 93.859375 239.695312 C 92.800781 238.265625 91.777344 236.8125 90.789062 235.332031 C 89.800781 233.855469 88.847656 232.351562 87.933594 230.828125 C 87.019531 229.300781 86.144531 227.753906 85.304688 226.1875 C 84.46875 224.617188 83.667969 223.03125 82.90625 221.421875 C 82.148438 219.816406 81.425781 218.191406 80.746094 216.546875 C 80.066406 214.902344 79.425781 213.246094 78.828125 211.570312 C 78.226562 209.898438 77.667969 208.207031 77.152344 206.507812 C 76.636719 204.804688 76.164062 203.089844 75.730469 201.367188 C 75.300781 199.640625 74.910156 197.90625 74.5625 196.164062 C 74.214844 194.417969 73.910156 192.667969 73.652344 190.90625 C 73.390625 189.148438 73.171875 187.382812 72.996094 185.613281 C 72.824219 183.84375 72.691406 182.070312 72.605469 180.296875 C 72.519531 178.519531 72.476562 176.742188 72.476562 174.964844 C 72.476562 173.1875 72.519531 171.410156 72.605469 169.632812 C 72.691406 167.855469 72.824219 166.082031 72.996094 164.3125 C 73.171875 162.542969 73.390625 160.78125 73.652344 159.019531 C 73.910156 157.261719 74.214844 155.507812 74.5625 153.765625 C 74.910156 152.019531 75.300781 150.285156 75.730469 148.5625 C 76.164062 146.835938 76.636719 145.125 77.152344 143.421875 C 77.667969 141.71875 78.226562 140.03125 78.828125 138.355469 C 79.425781 136.683594 80.066406 135.023438 80.746094 133.382812 C 81.425781 131.738281 82.148438 130.113281 82.90625 128.503906 C 83.667969 126.898438 84.46875 125.308594 85.304688 123.742188 C 86.144531 122.171875 87.019531 120.625 87.933594 119.101562 C 88.847656 117.574219 89.800781 116.074219 90.789062 114.59375 C 91.777344 113.117188 92.800781 111.664062 93.859375 110.234375 C 94.917969 108.804688 96.011719 107.40625 97.140625 106.03125 C 98.269531 104.65625 99.429688 103.308594 100.625 101.992188 C 101.816406 100.675781 103.042969 99.386719 104.300781 98.128906 C 105.558594 96.871094 106.847656 95.644531 108.164062 94.453125 C 109.480469 93.257812 110.828125 92.097656 112.203125 90.96875 C 113.578125 89.839844 114.976562 88.746094 116.40625 87.6875 C 117.835938 86.628906 119.289062 85.605469 120.765625 84.617188 C 122.246094 83.628906 123.746094 82.675781 125.273438 81.761719 C 126.796875 80.847656 128.34375 79.972656 129.914062 79.132812 C 131.480469 78.296875 133.070312 77.496094 134.675781 76.734375 C 136.285156 75.976562 137.910156 75.253906 139.554688 74.574219 C 141.195312 73.894531 142.855469 73.253906 144.527344 72.65625 C 146.203125 72.054688 147.890625 71.5 149.59375 70.980469 C 151.296875 70.464844 153.007812 69.992188 154.734375 69.558594 C 156.457031 69.128906 158.191406 68.738281 159.9375 68.390625 C 161.679688 68.042969 163.433594 67.738281 165.191406 67.480469 C 166.949219 67.21875 168.714844 67 170.484375 66.828125 C 172.253906 66.652344 174.027344 66.519531 175.804688 66.433594 C 177.582031 66.347656 179.359375 66.304688 181.136719 66.304688 C 182.914062 66.304688 184.691406 66.347656 186.46875 66.433594 C 188.242188 66.519531 190.015625 66.652344 191.785156 66.828125 C 193.554688 67 195.320312 67.21875 197.078125 67.480469 C 198.839844 67.738281 200.589844 68.042969 202.335938 68.390625 C 204.078125 68.738281 205.8125 69.128906 207.539062 69.558594 C 209.261719 69.992188 210.976562 70.464844 212.679688 70.980469 C 214.378906 71.5 216.070312 72.054688 217.742188 72.65625 C 219.417969 73.253906 221.074219 73.894531 222.71875 74.574219 C 224.363281 75.253906 225.988281 75.976562 227.59375 76.734375 C 229.203125 77.496094 230.789062 78.296875 232.359375 79.132812 C 233.925781 79.972656 235.472656 80.847656 237 81.761719 C 238.523438 82.675781 240.027344 83.628906 241.503906 84.617188 C 242.984375 85.605469 244.4375 86.628906 245.867188 87.6875 C 247.292969 88.746094 248.695312 89.839844 250.070312 90.96875 C 251.445312 92.097656 252.789062 93.257812 254.109375 94.453125 C 255.425781 95.644531 256.714844 96.871094 257.972656 98.128906 C 259.226562 99.386719 260.453125 100.675781 261.648438 101.992188 C 262.84375 103.308594 264.003906 104.65625 265.132812 106.03125 C 266.261719 107.40625 267.355469 108.804688 268.414062 110.234375 C 269.472656 111.664062 270.496094 113.117188 271.484375 114.59375 C 272.472656 116.074219 273.421875 117.574219 274.335938 119.101562 C 275.253906 120.625 276.128906 122.171875 276.964844 123.742188 C 277.804688 125.308594 278.605469 126.898438 279.363281 128.503906 C 280.125 130.113281 280.84375 131.738281 281.527344 133.382812 C 282.207031 135.023438 282.847656 136.683594 283.445312 138.355469 C 284.042969 140.03125 284.601562 141.71875 285.117188 143.421875 C 285.632812 145.125 286.109375 146.835938 286.539062 148.5625 C 286.972656 150.285156 287.363281 152.019531 287.710938 153.765625 C 288.054688 155.507812 288.359375 157.261719 288.621094 159.019531 C 288.882812 160.78125 289.097656 162.542969 289.273438 164.3125 C 289.449219 166.082031 289.578125 167.855469 289.667969 169.632812 C 289.753906 171.410156 289.796875 173.1875 289.796875 174.964844 Z M 289.796875 174.964844 " fill-opacity="1" fill-rule="nonzero"/><g clip-path="url(#bce259b894)"><path fill="#8c52ff" d="M 184.824219 70.5625 C 230.414062 70.714844 272.152344 100.886719 287.671875 143.566406 C 303.480469 187.035156 290.617188 237.601562 254.832031 267.261719 C 235.242188 283.496094 211.152344 291.988281 185.839844 292.074219 C 183.332031 292.074219 179.738281 294.015625 179.46875 296.769531 C 179.171875 299.796875 182.523438 300.605469 184.824219 300.59375 C 234.726562 300.425781 281.578125 268.726562 298.871094 221.648438 C 299.933594 218.792969 300.886719 215.898438 301.722656 212.96875 C 302.5625 210.039062 303.285156 207.082031 303.894531 204.09375 C 304.503906 201.109375 304.996094 198.101562 305.375 195.078125 C 305.75 192.054688 306.007812 189.019531 306.148438 185.972656 C 306.289062 182.929688 306.3125 179.882812 306.214844 176.835938 C 306.121094 173.789062 305.90625 170.753906 305.574219 167.722656 C 305.246094 164.691406 304.796875 161.679688 304.230469 158.683594 C 303.667969 155.691406 302.988281 152.722656 302.191406 149.777344 C 301.398438 146.835938 300.492188 143.929688 299.46875 141.058594 C 298.449219 138.1875 297.320312 135.355469 296.082031 132.574219 C 294.839844 129.789062 293.496094 127.054688 292.042969 124.375 C 290.59375 121.695312 289.039062 119.078125 287.386719 116.515625 C 285.730469 113.957031 283.980469 111.464844 282.132812 109.042969 C 280.285156 106.617188 278.34375 104.269531 276.316406 101.996094 C 274.285156 99.722656 272.171875 97.53125 269.96875 95.421875 C 267.769531 93.3125 265.492188 91.289062 263.136719 89.355469 C 241.445312 71.371094 213.90625 62.136719 185.839844 62.039062 C 183.332031 62.039062 179.738281 63.992188 179.46875 66.730469 C 179.167969 69.773438 182.523438 70.550781 184.824219 70.5625 Z M 184.824219 70.5625 " fill-opacity="1" fill-rule="nonzero"/></g><g clip-path="url(#1f4cb4bbf7)"><path fill="#8c52ff" d="M 175.164062 279.011719 C 129.578125 278.859375 87.835938 248.6875 72.316406 206.007812 C 56.507812 162.539062 69.371094 112 105.15625 82.320312 C 124.746094 66.085938 148.835938 57.59375 174.148438 57.507812 C 176.65625 57.507812 180.25 55.566406 180.519531 52.808594 C 180.816406 49.785156 177.464844 48.972656 175.164062 48.984375 C 125.261719 49.152344 78.394531 80.847656 61.117188 127.925781 C 60.054688 130.78125 59.101562 133.675781 58.265625 136.605469 C 57.425781 139.535156 56.703125 142.496094 56.09375 145.480469 C 55.484375 148.46875 54.992188 151.472656 54.617188 154.496094 C 54.238281 157.523438 53.980469 160.554688 53.839844 163.601562 C 53.699219 166.644531 53.675781 169.691406 53.773438 172.738281 C 53.867188 175.785156 54.082031 178.820312 54.414062 181.851562 C 54.742188 184.882812 55.191406 187.894531 55.757812 190.890625 C 56.320312 193.882812 57 196.851562 57.796875 199.796875 C 58.589844 202.738281 59.496094 205.644531 60.519531 208.515625 C 61.539062 211.390625 62.667969 214.21875 63.90625 217 C 65.148438 219.785156 66.492188 222.519531 67.945312 225.199219 C 69.394531 227.878906 70.949219 230.5 72.605469 233.058594 C 74.257812 235.617188 76.007812 238.109375 77.855469 240.53125 C 79.703125 242.957031 81.644531 245.304688 83.671875 247.578125 C 85.703125 249.851562 87.820312 252.042969 90.019531 254.152344 C 92.21875 256.261719 94.496094 258.285156 96.851562 260.21875 C 118.542969 278.203125 146.082031 287.4375 174.148438 287.535156 C 176.65625 287.535156 180.25 285.582031 180.519531 282.84375 C 180.820312 279.800781 177.464844 279.023438 175.164062 279.011719 Z M 175.164062 279.011719 " fill-opacity="1" fill-rule="nonzero"/></g><g clip-path="url(#934897cd8f)"><path fill="#5e17eb" d="M 162.195312 167.144531 L 162.195312 161.605469 C 162.195312 150.277344 152.972656 141.054688 141.644531 141.054688 C 130.316406 141.054688 121.089844 150.273438 121.089844 161.605469 L 121.089844 167.144531 C 117.988281 167.230469 115.496094 169.757812 115.496094 172.878906 L 115.496094 202.816406 C 115.496094 203.195312 115.53125 203.566406 115.605469 203.9375 C 115.679688 204.308594 115.789062 204.667969 115.933594 205.015625 C 116.078125 205.367188 116.253906 205.699219 116.464844 206.011719 C 116.671875 206.324219 116.910156 206.617188 117.179688 206.882812 C 117.445312 207.148438 117.734375 207.386719 118.050781 207.597656 C 118.363281 207.808594 118.695312 207.984375 119.042969 208.128906 C 119.394531 208.273438 119.753906 208.382812 120.121094 208.457031 C 120.492188 208.53125 120.867188 208.566406 121.246094 208.566406 L 162.039062 208.566406 C 162.417969 208.566406 162.792969 208.53125 163.164062 208.457031 C 163.53125 208.382812 163.894531 208.273438 164.242188 208.128906 C 164.589844 207.984375 164.921875 207.808594 165.234375 207.597656 C 165.550781 207.390625 165.839844 207.148438 166.105469 206.882812 C 166.375 206.617188 166.613281 206.324219 166.824219 206.011719 C 167.03125 205.699219 167.210938 205.367188 167.355469 205.019531 C 167.5 204.667969 167.609375 204.308594 167.679688 203.9375 C 167.753906 203.570312 167.792969 203.195312 167.792969 202.816406 L 167.792969 172.878906 C 167.792969 169.757812 165.296875 167.230469 162.195312 167.144531 Z M 146.347656 183.710938 C 146.320312 183.890625 146.222656 184.296875 146.210938 184.328125 C 145.863281 185.542969 145.023438 186.542969 143.933594 187.152344 L 145.777344 195.019531 C 145.832031 195.183594 145.847656 195.351562 145.820312 195.523438 C 145.796875 195.695312 145.734375 195.851562 145.632812 195.996094 C 145.53125 196.136719 145.40625 196.246094 145.253906 196.328125 C 145.101562 196.410156 144.9375 196.453125 144.765625 196.457031 L 138.648438 196.457031 C 138.472656 196.453125 138.3125 196.410156 138.15625 196.328125 C 138.003906 196.246094 137.878906 196.136719 137.777344 195.996094 C 137.679688 195.851562 137.617188 195.695312 137.589844 195.523438 C 137.5625 195.351562 137.578125 195.183594 137.632812 195.019531 L 139.355469 187.152344 C 138.265625 186.542969 137.425781 185.542969 137.074219 184.328125 C 137.066406 184.296875 136.964844 183.890625 136.9375 183.710938 C 136.90625 183.492188 136.890625 183.269531 136.890625 183.046875 C 136.890625 182.738281 136.921875 182.425781 136.980469 182.121094 C 137.042969 181.816406 137.132812 181.519531 137.25 181.230469 C 137.371094 180.941406 137.515625 180.667969 137.691406 180.40625 C 137.863281 180.148438 138.0625 179.90625 138.28125 179.6875 C 138.503906 179.464844 138.742188 179.269531 139 179.09375 C 139.261719 178.921875 139.535156 178.777344 139.824219 178.65625 C 140.113281 178.535156 140.410156 178.445312 140.714844 178.386719 C 141.023438 178.324219 141.332031 178.292969 141.644531 178.292969 C 141.957031 178.292969 142.265625 178.324219 142.570312 178.386719 C 142.875 178.445312 143.175781 178.535156 143.460938 178.65625 C 143.75 178.777344 144.023438 178.921875 144.285156 179.09375 C 144.542969 179.269531 144.785156 179.464844 145.003906 179.6875 C 145.226562 179.90625 145.421875 180.148438 145.59375 180.40625 C 145.769531 180.667969 145.914062 180.941406 146.035156 181.230469 C 146.152344 181.519531 146.242188 181.816406 146.304688 182.121094 C 146.367188 182.425781 146.394531 182.738281 146.394531 183.046875 C 146.394531 183.269531 146.378906 183.492188 146.347656 183.710938 Z M 155.175781 167.128906 L 128.109375 167.128906 L 128.109375 161.605469 C 128.109375 154.140625 134.175781 148.070312 141.644531 148.070312 C 149.109375 148.070312 155.175781 154.140625 155.175781 161.605469 Z M 155.175781 167.128906 " fill-opacity="1" fill-rule="nonzero"/></g><g clip-path="url(#6cc29333f3)"><g clip-path="url(#7b5304248b)"><g clip-path="url(#29a63ce532)"><path fill="#5e17eb" d="M 228.121094 178.136719 C 231.402344 170.3125 229.628906 160.957031 223 154.933594 C 214.578125 147.28125 201.558594 147.902344 193.90625 156.324219 C 186.253906 164.746094 186.878906 177.765625 195.300781 185.417969 C 201.929688 191.445312 211.410156 192.316406 218.886719 188.300781 L 229.9375 198.339844 L 220.703125 208.503906 L 230.867188 217.738281 L 240.097656 207.574219 L 245.179688 212.191406 L 254.414062 202.03125 Z M 204.53125 175.257812 C 201.726562 172.707031 201.519531 168.367188 204.070312 165.558594 C 206.621094 162.753906 210.957031 162.542969 213.765625 165.09375 C 216.574219 167.644531 216.78125 171.984375 214.230469 174.792969 C 211.679688 177.601562 207.339844 177.808594 204.53125 175.257812 Z M 204.53125 175.257812 " fill-opacity="1" fill-rule="nonzero"/></g></g></g></svg>